
<svg width="19px" height="19px" viewBox="0 0 19 19" version="1.1" xmlns="http://www.w3.org/2000/svg" xmlns:xlink="http://www.w3.org/1999/xlink">
    <defs>
        <radialGradient cx="26.5626266%" cy="107.702106%" fx="26.5626266%" fy="107.702106%" r="99.8425262%" gradientTransform="translate(0.265626,1.077021),scale(1.000000,0.992637),rotate(-90.000000),translate(-0.265626,-1.077021)" id="radialGradient-1">
            <stop stop-color="#FFDD55" offset="0%"></stop>
            <stop stop-color="#FFDD55" offset="10%"></stop>
            <stop stop-color="#FF543E" offset="50%"></stop>
            <stop stop-color="#C837AB" offset="100%"></stop>
        </radialGradient>
        <radialGradient cx="-16.7505274%" cy="7.20383154%" fx="-16.7505274%" fy="7.20383154%" r="44.6174043%" gradientTransform="translate(-0.167505,0.072038),scale(1.000000,0.992637),rotate(78.761861),translate(0.167505,-0.072038)" id="radialGradient-2">
            <stop stop-color="#3771C8" offset="0%"></stop>
            <stop stop-color="#3771C8" offset="12.8%"></stop>
            <stop stop-color="#6600FF" stop-opacity="0" offset="100%"></stop>
        </radialGradient>
    </defs>
    <g id="Page-1" stroke="none" stroke-width="1" fill="none" fill-rule="evenodd">
        <g id="instagram" fill-rule="nonzero">
            <path d="M9.43241221,0 C5.49578626,0 4.34447328,0.00409230769 4.12067939,0.0228 C3.31281679,0.0904692308 2.8101145,0.218646154 2.26245038,0.493415385 C1.84038931,0.704607692 1.50752672,0.949415385 1.17901527,1.29258462 C0.580732824,1.91841538 0.218137405,2.68835385 0.0868778626,3.60356923 C0.0230610687,4.04787692 0.00449618321,4.13849231 0.00072519084,6.40796923 C-0.00072519084,7.16446154 0.00072519084,8.16006154 0.00072519084,9.49546923 C0.00072519084,13.4591615 0.00507633588,14.6181615 0.0239312977,14.8432385 C0.0891984733,15.6353923 0.212480916,16.1337769 0.473549618,16.6789308 C0.972480916,17.7224692 1.92538168,18.5058538 3.0479771,18.7981615 C3.43667939,18.8990077 3.86599237,18.9545462 4.4171374,18.9808538 C4.65064885,18.9910846 7.03072519,18.9983923 9.41225191,18.9983923 C11.7937786,18.9983923 14.1753053,18.9954692 14.4030153,18.9837769 C15.0411832,18.9535231 15.4117557,18.9033923 15.8214885,18.7967 C16.9513359,18.5029308 17.8868321,17.7312385 18.395916,16.6730846 C18.6519084,16.1410846 18.7817176,15.6237 18.840458,14.8729077 C18.8532214,14.7092154 18.8585878,12.0993462 18.8585878,9.49298462 C18.8585878,6.88618462 18.8527863,4.28113846 18.8400229,4.11744615 C18.7805573,3.35452308 18.6507481,2.84152308 18.3864885,2.29929231 C18.1696565,1.85542308 17.9288931,1.52394615 17.5793511,1.18501538 C16.955542,0.584615385 16.1926412,0.219230769 15.283542,0.0871076923 C14.8430611,0.0229461538 14.755313,0.00394615385 12.5014198,0 L9.43241221,0 Z" id="Path" fill="url(#radialGradient-1)"></path>
            <path d="M9.43241221,0 C5.49578626,0 4.34447328,0.00409230769 4.12067939,0.0228 C3.31281679,0.0904692308 2.8101145,0.218646154 2.26245038,0.493415385 C1.84038931,0.704607692 1.50752672,0.949415385 1.17901527,1.29258462 C0.580732824,1.91841538 0.218137405,2.68835385 0.0868778626,3.60356923 C0.0230610687,4.04787692 0.00449618321,4.13849231 0.00072519084,6.40796923 C-0.00072519084,7.16446154 0.00072519084,8.16006154 0.00072519084,9.49546923 C0.00072519084,13.4591615 0.00507633588,14.6181615 0.0239312977,14.8432385 C0.0891984733,15.6353923 0.212480916,16.1337769 0.473549618,16.6789308 C0.972480916,17.7224692 1.92538168,18.5058538 3.0479771,18.7981615 C3.43667939,18.8990077 3.86599237,18.9545462 4.4171374,18.9808538 C4.65064885,18.9910846 7.03072519,18.9983923 9.41225191,18.9983923 C11.7937786,18.9983923 14.1753053,18.9954692 14.4030153,18.9837769 C15.0411832,18.9535231 15.4117557,18.9033923 15.8214885,18.7967 C16.9513359,18.5029308 17.8868321,17.7312385 18.395916,16.6730846 C18.6519084,16.1410846 18.7817176,15.6237 18.840458,14.8729077 C18.8532214,14.7092154 18.8585878,12.0993462 18.8585878,9.49298462 C18.8585878,6.88618462 18.8527863,4.28113846 18.8400229,4.11744615 C18.7805573,3.35452308 18.6507481,2.84152308 18.3864885,2.29929231 C18.1696565,1.85542308 17.9288931,1.52394615 17.5793511,1.18501538 C16.955542,0.584615385 16.1926412,0.219230769 15.283542,0.0871076923 C14.8430611,0.0229461538 14.755313,0.00394615385 12.5014198,0 L9.43241221,0 Z" id="Path" fill="url(#radialGradient-2)"></path>
            <path d="M9.42806107,2.48461538 C7.53734351,2.48461538 7.30006107,2.49294615 6.55746565,2.527 C5.81632061,2.5612 5.31042748,2.67943846 4.86777099,2.85292308 C4.4098855,3.03210769 4.02147328,3.2718 3.63451145,3.66188462 C3.24725954,4.05182308 3.00939695,4.44322308 2.831,4.90448462 C2.65840458,5.35069231 2.54092366,5.86062308 2.50756489,6.60717692 C2.47435115,7.35548462 2.46564885,7.59473846 2.46564885,9.5 C2.46564885,11.4052615 2.47406107,11.6436385 2.50770992,12.3919462 C2.54179389,13.1387923 2.65912977,13.6485769 2.83114504,14.0946385 C3.00910687,14.5560462 3.24696947,14.9474462 3.63407634,15.3373846 C4.02089313,15.7276154 4.40930534,15.9678923 4.86690076,16.1470769 C5.30984733,16.3205615 5.8158855,16.4388 6.5568855,16.473 C7.29948092,16.5070538 7.53661832,16.5153846 9.42719084,16.5153846 C11.3180534,16.5153846 11.5546107,16.5070538 12.2972061,16.473 C13.0383511,16.4388 13.5448244,16.3205615 13.987771,16.1470769 C14.4455115,15.9678923 14.8333435,15.7276154 15.2201603,15.3373846 C15.6074122,14.9474462 15.8452748,14.5560462 16.0236718,14.0947846 C16.1948168,13.6485769 16.3122977,13.1386462 16.3471069,12.3920923 C16.3804656,11.6437846 16.3891679,11.4052615 16.3891679,9.5 C16.3891679,7.59473846 16.3804656,7.35563077 16.3471069,6.60732308 C16.3122977,5.86047692 16.1948168,5.35069231 16.0236718,4.90463077 C15.8452748,4.44322308 15.6074122,4.05182308 15.2201603,3.66188462 C14.8329084,3.27165385 14.4456565,3.03196154 13.9873359,2.85292308 C13.5435191,2.67943846 13.0373359,2.5612 12.2961908,2.527 C11.5535954,2.49294615 11.3171832,2.48461538 9.4258855,2.48461538 L9.42806107,2.48461538 Z M8.80352672,3.74884615 C8.9888855,3.74855385 9.19570992,3.74884615 9.42806107,3.74884615 C11.2868702,3.74884615 11.5071832,3.75556923 12.2412214,3.78918462 C12.92,3.82046154 13.2883969,3.93475385 13.5338015,4.03077692 C13.858687,4.15793077 14.090313,4.30993077 14.3338321,4.55546923 C14.5774962,4.80100769 14.7283359,5.03485385 14.8548092,5.36223846 C14.9500992,5.60923846 15.0636641,5.98046923 15.0945573,6.66446923 C15.127916,7.40400769 15.1351679,7.62616154 15.1351679,9.49839231 C15.1351679,11.3706231 15.127916,11.5927769 15.0945573,12.3323154 C15.0635191,13.0163154 14.9500992,13.3875462 14.8548092,13.6345462 C14.728626,13.9619308 14.5774962,14.1950462 14.3338321,14.4404385 C14.0901679,14.6859769 13.8588321,14.8379769 13.5338015,14.9651308 C13.288687,15.0615923 12.92,15.1755923 12.2412214,15.2068692 C11.5073282,15.2404846 11.2868702,15.2477923 9.42806107,15.2477923 C7.56910687,15.2477923 7.34879389,15.2404846 6.61490076,15.2068692 C5.93612214,15.1753 5.56772519,15.0610077 5.32217557,14.9649846 C4.99729008,14.8378308 4.76522901,14.6858308 4.52156489,14.4402923 C4.27790076,14.1947538 4.12706107,13.9614923 4.00058779,13.6339615 C3.90529771,13.3869615 3.79173282,13.0157308 3.76083969,12.3317308 C3.72748092,11.5921923 3.72080916,11.3700385 3.72080916,9.49663846 C3.72080916,7.62323846 3.72748092,7.40225385 3.76083969,6.66271538 C3.79187786,5.97871538 3.90529771,5.60748462 4.00058779,5.36019231 C4.12677099,5.03280769 4.27790076,4.79896154 4.52156489,4.55342308 C4.76522901,4.30788462 4.99729008,4.15588462 5.32217557,4.02843846 C5.56758015,3.93197692 5.93612214,3.81797692 6.61490076,3.78655385 C7.25712977,3.75732308 7.50601527,3.74855385 8.80352672,3.74709231 L8.80352672,3.74884615 Z M13.144229,4.91369231 C12.6830076,4.91369231 12.3088092,5.29033077 12.3088092,5.75524615 C12.3088092,6.22001538 12.6830076,6.59709231 13.144229,6.59709231 C13.6054504,6.59709231 13.9796489,6.22001538 13.9796489,5.75524615 C13.9796489,5.29047692 13.6054504,4.9134 13.144229,4.9134 L13.144229,4.91369231 Z M9.42806107,5.89730769 C7.45365649,5.89730769 5.85287023,7.51040769 5.85287023,9.5 C5.85287023,11.4895923 7.45365649,13.1019615 9.42806107,13.1019615 C11.4024656,13.1019615 13.0026718,11.4895923 13.0026718,9.5 C13.0026718,7.51040769 11.4023206,5.89730769 9.42791603,5.89730769 L9.42806107,5.89730769 Z M9.42806107,7.16153846 C10.7096183,7.16153846 11.7486718,8.20843846 11.7486718,9.5 C11.7486718,10.7914154 10.7096183,11.8384615 9.42806107,11.8384615 C8.14635878,11.8384615 7.10745038,10.7914154 7.10745038,9.5 C7.10745038,8.20843846 8.14635878,7.16153846 9.42806107,7.16153846 Z" id="Shape" fill="#FFFFFF"></path>
        </g>
    </g>
</svg>