
<svg width="21px" height="16px" viewBox="0 0 21 16" version="1.1" xmlns="http://www.w3.org/2000/svg" xmlns:xlink="http://www.w3.org/1999/xlink">
    <g id="Symbols" stroke="none" stroke-width="1" fill="none" fill-rule="evenodd">
        <g id="07_icons/04_social/youtube" fill="#EE4023">
            <g id="youtube">
                <path d="M3,0 C8.00593824,-0.0757575758 12.9940618,-0.0757575758 18,0 C19.4786223,0.328282828 20.5760095,1.54040404 21,3 C21.0748219,5.98484848 21.0748219,8.91414141 21,12 C20.5760095,13.459596 19.4786223,14.6717172 18,15 C13.891924,15.0757576 9.00356295,15.0757576 3,15 C1.52137767,14.6717172 0.423990499,13.459596 -4.54747351e-13,12 C-0.0748218527,9.01515152 -0.0748218527,6.08585859 -4.54747351e-13,3 C0.423990499,1.54040404 1.52137767,0.328282828 3,0 L3,0 L3,0 Z M8,4 L14,7 L8,10 L8,4 L8,4 L8,4 Z" id="icon-youtube"></path>
            </g>
        </g>
    </g>
</svg>